HIERARCHY
ROOT Hips
{
    OFFSET 0.000000 0.000000 0.000000
    CHANNELS 6 Xposition Yposition Zposition Zrotation Xrotation Yrotation
    JOINT Spine
    {
        OFFSET -0.000000 14.517291 0.000000
        CHANNELS 3 Zrotation Xrotation Yrotation
        JOINT Spine1
        {
            OFFSET -0.000000 37.558300 0.000000
            CHANNELS 3 Zrotation Xrotation Yrotation
            JOINT Neck
            {
                OFFSET -0.000000 37.404057 3.400369
                CHANNELS 3 Zrotation Xrotation Yrotation
                JOINT Head
                {
                    OFFSET -0.000000 24.785618 -3.540803
                    CHANNELS 3 Zrotation Xrotation Yrotation
                    End Site
                    {
                        OFFSET -0.000000 35.408028 0.000000
                    }
                }
            }
            JOINT LeftShoulder
            {
                OFFSET 6.992933 33.973492 -0.192664
                CHANNELS 3 Zrotation Xrotation Yrotation
                JOINT LeftArm
                {
                    OFFSET 21.527611 0.000000 0.000000
                    CHANNELS 3 Zrotation Xrotation Yrotation
                    JOINT LeftForeArm
                    {
                        OFFSET 56.353916 0.000000 0.000000
                        CHANNELS 3 Zrotation Xrotation Yrotation
                        JOINT LeftHand
                        {
                            OFFSET 47.774071 0.000000 0.000000
                            CHANNELS 3 Zrotation Xrotation Yrotation
                            End Site
                            {
                                OFFSET 26.556021 0.000000 0.000000
                            }
                        }
                    }
                }
            }
            JOINT RightShoulder
            {
                OFFSET -7.065357 33.973492 -0.192664
                CHANNELS 3 Zrotation Xrotation Yrotation
                JOINT RightArm
                {
                    OFFSET -21.527611 0.000000 0.000000
                    CHANNELS 3 Zrotation Xrotation Yrotation
                    JOINT RightForeArm
                    {
                        OFFSET -56.353916 0.000000 0.000000
                        CHANNELS 3 Zrotation Xrotation Yrotation
                        JOINT RightHand
                        {
                            OFFSET -47.774071 0.000000 0.000000
                            CHANNELS 3 Zrotation Xrotation Yrotation
                            End Site
                            {
                                OFFSET -26.556021 0.000000 0.000000
                            }
                        }
                    }
                }
            }
        }
    }
    JOINT LeftUpLeg
    {
        OFFSET 17.704014 0.000000 0.000000
        CHANNELS 3 Zrotation Xrotation Yrotation
        JOINT LeftLeg
        {
            OFFSET -0.000000 -81.181816 0.000000
            CHANNELS 3 Zrotation Xrotation Yrotation
            JOINT LeftFoot
            {
                OFFSET -0.000000 -62.821102 0.000000
                CHANNELS 3 Zrotation Xrotation Yrotation
                JOINT LeftToeBase
                {
                    OFFSET -0.000000 -11.507608 26.556021
                    CHANNELS 3 Zrotation Xrotation Yrotation
                    End Site
                    {
                        OFFSET -0.000000 0.000000 7.081605
                    }
                }
            }
        }
    }
    JOINT RightUpLeg
    {
        OFFSET -17.704014 0.000000 0.000000
        CHANNELS 3 Zrotation Xrotation Yrotation
        JOINT RightLeg
        {
            OFFSET -0.000000 -81.181816 0.000000
            CHANNELS 3 Zrotation Xrotation Yrotation
            JOINT RightFoot
            {
                OFFSET -0.000000 -62.821102 0.000000
                CHANNELS 3 Zrotation Xrotation Yrotation
                JOINT RightToeBase
                {
                    OFFSET -0.000000 -11.507608 26.556021
                    CHANNELS 3 Zrotation Xrotation Yrotation
                    End Site
                    {
                        OFFSET -0.000000 0.000000 7.081605
                    }
                }
            }
        }
    }
}
MOTION
Frames:    10
Frame Time:    0.008333
25.436413    152.024689    -96.683029    2.693079    -8.996645    44.772026    -0.913139    1.194389    -1.125817    -1.805461    3.026156    -0.331034    1.081700    8.997864    -19.416626    14.303134    -3.815544    -17.864336    2.079118    9.711639    -14.539657    -30.941872    22.201651    -49.994595    -2.966450    -27.788898    -114.638878    -11.180742    -30.447439    -16.074188    0.768933    11.364931    -5.129028    29.054461    14.681865    40.275143    -7.815613    7.130408    36.957111    -22.044586    2.361210    36.653072    4.112195    0.623078    -10.135781    -20.198887    44.177299    -19.991325    23.730560    -26.903034    55.761913    0.000000    0.000000    0.000000    -7.950299    -27.637672    -8.213255    7.104698    11.990332    -13.591668    18.658365    33.548477    -14.651866    0.000000    0.000000    0.000000    
25.173634    152.162415    -97.097534    2.627268    -9.054674    44.613522    -0.980700    1.174904    -1.095883    -1.713922    3.040881    -0.323442    1.126980    8.961617    -19.376371    14.247574    -3.731690    -17.845211    2.102481    9.719830    -14.508080    -30.991798    22.248867    -49.864201    -3.011379    -27.738173    -114.681580    -11.034544    -30.486887    -15.986184    0.791567    11.408239    -5.156991    28.988571    14.641683    40.351433    -7.774690    7.146781    37.049294    -22.003670    2.394505    36.609486    4.158575    0.498016    -10.100163    -20.233038    44.012939    -19.884731    23.615747    -26.721102    55.685619    0.000000    0.000000    0.000000    -8.153129    -27.699261    -8.011769    7.129407    12.113404    -13.448460    21.292595    32.486477    -16.612526    0.000000    0.000000    0.000000    
24.910889    152.292770    -97.515915    2.560110    -9.131088    44.470913    -0.985862    1.201835    -1.070725    -1.671671    3.014411    -0.316716    1.111302    8.930019    -19.344719    14.265182    -3.595409    -17.824955    2.110688    9.684027    -14.485906    -31.074408    22.294729    -49.676228    -3.065637    -27.636868    -114.741440    -11.044726    -30.470900    -15.913169    0.785337    11.396517    -5.130280    29.023008    14.545773    40.306461    -7.730578    7.327062    37.127922    -22.147329    2.492113    36.726604    4.227160    0.373191    -10.063718    -20.276947    43.881260    -19.784588    23.514671    -26.519854    55.566143    0.000000    0.000000    0.000000    -8.363802    -27.739435    -7.889877    7.182073    12.293219    -13.292918    23.201078    31.572332    -18.171690    0.000000    0.000000    0.000000    
24.637972    152.412170    -97.915588    2.477101    -9.195297    44.357006    -1.001439    1.202842    -1.076245    -1.620497    2.998936    -0.320085    1.121582    8.925254    -19.297873    14.275607    -3.514390    -17.784706    2.124440    9.661820    -14.441482    -31.072477    22.380301    -49.542923    -3.077328    -27.636683    -114.776993    -10.966111    -30.506529    -15.823656    0.789882    11.405733    -5.116253    29.019619    14.474140    40.319313    -7.641273    7.393461    37.201427    -22.121136    2.547129    36.709320    4.317492    0.225491    -10.045429    -20.332228    43.738926    -19.717657    23.447659    -26.306875    55.517826    0.000000    0.000000    0.000000    -8.579698    -27.775881    -7.835618    7.222321    12.527719    -13.146440    24.035080    30.876265    -18.850344    0.000000    0.000000    0.000000    
24.386982    152.535324    -98.275230    2.428964    -9.301845    44.252964    -1.007553    1.232995    -1.056482    -1.589689    3.009855    -0.314337    1.127131    8.863780    -19.282406    14.291238    -3.342882    -17.787983    2.168740    9.636054    -14.454392    -31.094456    22.425703    -49.392910    -3.124709    -27.602606    -114.807678    -11.032460    -30.529833    -15.843916    0.837798    11.386354    -5.107850    28.973087    14.483730    40.244656    -7.614182    7.345907    37.382545    -22.102058    2.550341    36.524143    4.417386    0.157396    -9.977615    -20.324907    43.610458    -19.722097    23.350092    -26.148394    55.445168    0.000000    0.000000    0.000000    -8.790684    -27.702698    -7.797363    7.246968    12.792799    -12.951883    24.218689    30.177917    -18.813009    0.000000    0.000000    0.000000    
24.138372    152.657104    -98.647270    2.379310    -9.415081    44.140491    -0.978832    1.265214    -1.033920    -1.576932    3.046118    -0.306472    1.120080    8.822583    -19.248484    14.331589    -3.238347    -17.758488    2.179797    9.621619    -14.422737    -31.081814    22.434546    -49.308578    -3.183077    -27.531322    -114.830109    -11.046205    -30.538975    -15.851631    0.839234    11.416799    -5.129017    28.981525    14.448322    40.298985    -7.657910    7.452212    37.344757    -22.150707    2.616865    36.688583    4.495740    0.077907    -9.867405    -20.245672    43.537395    -19.770996    23.235958    -26.007193    55.379536    0.000000    0.000000    0.000000    -8.992236    -27.621616    -7.819945    7.280400    13.106497    -12.940692    23.744745    29.597328    -18.285620    0.000000    0.000000    0.000000    
23.886923    152.776123    -98.985077    2.315975    -9.542622    44.047813    -0.941743    1.302823    -1.010947    -1.564155    3.078040    -0.298719    1.190088    8.783215    -19.234976    14.295682    -3.169478    -17.764009    2.204420    9.605008    -14.417634    -31.054071    22.446697    -49.220787    -3.187727    -27.484402    -114.831619    -11.025030    -30.501657    -15.859421    0.859961    11.368515    -5.136188    29.011499    14.426171    40.234806    -7.621318    7.516918    37.405514    -22.195791    2.646659    36.743107    4.602885    0.007971    -9.760664    -20.148367    43.468803    -19.826448    23.139181    -25.885313    55.307659    0.000000    0.000000    0.000000    -9.185902    -27.488283    -7.880203    7.275467    13.415087    -12.837294    22.967260    28.976145    -17.301039    0.000000    0.000000    0.000000    
23.628855    152.903442    -99.323509    2.242527    -9.659976    43.937069    -0.897824    1.333769    -0.985575    -1.550146    3.106504    -0.290119    1.223107    8.717777    -19.208353    14.264167    -3.059319    -17.757793    2.213020    9.570166    -14.423913    -31.068850    22.426689    -49.094913    -3.248154    -27.404245    -114.879410    -10.986266    -30.518904    -15.802728    0.887156    11.389056    -5.178045    28.968676    14.437055    40.288803    -7.648123    7.542464    37.381519    -22.167131    2.697713    36.706123    4.717917    -0.073719    -9.700782    -20.102751    43.372269    -19.868677    23.031485    -25.742504    55.269005    0.000000    0.000000    0.000000    -9.366073    -27.370111    -7.992356    7.252943    13.772039    -12.660070    21.976210    28.375256    -16.445875    0.000000    0.000000    0.000000    
23.382673    153.015762    -99.670135    2.174061    -9.779874    43.833553    -0.862678    1.374912    -0.970247    -1.503007    3.130085    -0.285891    1.189742    8.747961    -19.186825    14.366427    -3.051379    -17.716791    2.187241    9.548288    -14.439013    -31.085175    22.350317    -48.968784    -3.141534    -27.302301    -114.877769    -10.963300    -30.301210    -15.529282    0.870468    11.382530    -5.140155    28.958523    14.488056    40.247894    -7.747612    7.515742    37.368614    -22.204834    2.701472    36.656265    4.812306    -0.157189    -9.695802    -20.089731    43.282028    -19.789188    22.939966    -25.609097    55.203831    0.000000    0.000000    0.000000    -9.576574    -27.230089    -8.037910    7.272150    14.151368    -12.505981    20.878277    27.710602    -15.632146    0.000000    0.000000    0.000000    
23.148172    153.136322    -99.999725    2.106342    -9.901325    43.716076    -0.783811    1.422487    -0.946767    -1.529260    3.140156    -0.276875    1.188193    8.774741    -19.181265    14.450933    -3.019888    -17.700680    2.191675    9.549375    -14.408319    -31.061230    22.342543    -48.915791    -3.098408    -27.277719    -114.868866    -10.841581    -30.238323    -15.460382    0.882330    11.364753    -5.136862    28.989399    14.482608    40.235470    -7.672457    7.463914    37.377674    -22.127298    2.693640    36.461098    4.907925    -0.244321    -9.720089    -20.119848    43.211170    -19.678391    22.796019    -25.510921    55.163559    0.000000    0.000000    0.000000    -9.764802    -27.068069    -8.164113    7.221690    14.516363    -12.272360    19.755886    27.174511    -14.989312    0.000000    0.000000    0.000000    
